<?xml version="1.0"?>
<COLLADA xmlns="http://www.collada.org/2005/11/COLLADASchema" version="1.4.1">
  <asset>
    <contributor>
      <author>Assimp</author>
      <authoring_tool>Assimp Exporter</authoring_tool>
    </contributor>
    <created>2020-10-14T15:42:28</created>
    <modified>2020-10-14T15:42:28</modified>
    <unit name="meter" meter="0.01" />
    <up_axis>Y_UP</up_axis>
  </asset>
  <library_effects>
    <effect id="lambert1-fx" name="lambert1">
      <profile_COMMON>
        <technique sid="standard">
          <phong>
            <diffuse>
              <color sid="diffuse">0.5   0.5   0.5   1</color>
            </diffuse>
          </phong>
        </technique>
      </profile_COMMON>
    </effect>
  </library_effects>
  <library_materials>
    <material id="lambert1" name="lambert1">
      <instance_effect url="#lambert1-fx"/>
    </material>
  </library_materials>
  <library_geometries>
    <geometry id="meshId0" name="meshId0_name" >
      <mesh>
        <source id="meshId0-positions" name="meshId0-positions">
          <float_array id="meshId0-positions-array" count="696"> -1.48598e-08 1 0.496151 -1.48598e-08 0.900278 0.496151 -1.48598e-08 0.900278 0.396429 -1.48598e-08 1 0.396429 -1.48598e-08 0.800556 0.496151 -1.48598e-08 0.800556 0.396429 -1.48598e-08 0.700834 0.496151 -1.48598e-08 0.700834 0.396429 -1.48598e-08 0.601112 0.496151 -1.48598e-08 0.601112 0.396429 -1.48598e-08 0.50139 0.496151 -1.48598e-08 0.50139 0.396429 1.48598e-08 0.401667 0.496151 1.48598e-08 0.401667 0.396429 1.48598e-08 0.301945 0.496151 1.48598e-08 0.301945 0.396429 1.48598e-08 0.202223 0.496151 1.48598e-08 0.202223 0.396429 7.42988e-09 0.102501 0.496151 7.42988e-09 0.102501 0.396429 -1.3931e-09 0.00257449 0.49666 1.91552e-09 0.00267816 0.396806 -3.71494e-08 -0.0980882 0.498583 -2.97195e-08 -0.0976082 0.398548 -8.91585e-08 -0.199272 0.500728 -5.9439e-08 -0.198243 0.400585 -1.33738e-07 -0.30055 0.501987 -1.04018e-07 -0.29895 0.401834 -1.63457e-07 -0.401437 0.501841 -1.04018e-07 -0.399413 0.401766 -1.33738e-07 -0.501566 0.500454 -1.04018e-07 -0.499388 0.400503 -1.33738e-07 -0.601253 0.498639 -7.42988e-08 -0.599371 0.398995 -1.33738e-07 -0.70094 0.496824 -7.42988e-08 -0.699058 0.39718 -7.42988e-08 -0.800626 0.495008 -7.42988e-08 -0.798744 0.395364 -7.42988e-08 -0.900313 0.493193 -1.48598e-08 -0.898431 0.393549 -7.42988e-08 -1 0.491377 -1.48598e-08 -0.998118 0.391734 -1.48598e-08 0.900278 0.296707 -1.48598e-08 1 0.296707 -1.48598e-08 0.800556 0.296707 -1.48598e-08 0.700834 0.296707 -1.48598e-08 0.601112 0.296707 -1.48598e-08 0.50139 0.296707 1.48598e-08 0.401667 0.296707 1.48598e-08 0.301945 0.296707 1.48598e-08 0.202223 0.296707 7.42988e-09 0.102501 0.296707 6.38505e-09 0.00276509 0.296811 -7.42988e-09 -0.0971502 0.298028 -2.97195e-08 -0.197236 0.299712 -4.45793e-08 -0.297372 0.300858 -7.42988e-08 -0.397534 0.301301 -7.42988e-08 -0.497648 0.300848 -7.42988e-08 -0.597489 0.299351 -1.48598e-08 -0.697176 0.297536 -1.48598e-08 -0.796862 0.295721 -1.48598e-08 -0.896549 0.293905 4.45793e-08 -0.996236 0.29209 -1.48598e-08 0.900278 0.196984 -1.48598e-08 1 0.196984 -1.48598e-08 0.800556 0.196984 -1.48598e-08 0.700834 0.196984 -1.48598e-08 0.601112 0.196984 -1.48598e-08 0.50139 0.196984 1.48598e-08 0.401667 0.196984 1.48598e-08 0.301945 0.196984 1.48598e-08 0.202223 0.196984 7.42988e-09 0.102501 0.196984 7.72011e-09 0.00277901 0.196984 0 -0.0969434 0.197426 -1.48598e-08 -0.196673 0.199051 -4.45793e-08 -0.296421 0.20077 -4.45793e-08 -0.396175 0.20162 -4.45793e-08 -0.495907 0.201193 -1.48598e-08 -0.595607 0.199707 -1.48598e-08 -0.695293 0.197892 4.45793e-08 -0.79498 0.196077 4.45793e-08 -0.894667 0.194261 4.45793e-08 -0.994354 0.192446 -1.48598e-08 0.900278 0.0972623 -1.48598e-08 1 0.0972623 -1.48598e-08 0.800556 0.0972623 -1.48598e-08 0.700834 0.0972623 -1.48598e-08 0.601112 0.0972623 -1.48598e-08 0.50139 0.0972623 1.48598e-08 0.401667 0.0972623 1.48598e-08 0.301945 0.0972623 1.48598e-08 0.202223 0.0972623 7.42988e-09 0.102501 0.0972623 7.72011e-09 0.00277902 0.0972623 7.42988e-09 -0.096893 0.0975891 0 -0.196342 0.0990622 -1.48598e-08 -0.295643 0.100698 -1.48598e-08 -0.394918 0.101555 -1.48598e-08 -0.49429 0.101214 -1.48598e-08 -0.593859 0.0998545 4.45793e-08 -0.693411 0.0982483 4.45793e-08 -0.793098 0.0964328 4.45793e-08 -0.892785 0.0946174 1.04018e-07 -0.992472 0.092802 -1.48598e-08 0.900278 -0.00245982 -1.48598e-08 1 -0.00245982 -1.48598e-08 0.800556 -0.00245982 -1.48598e-08 0.700834 -0.00245982 -1.48598e-08 0.601112 -0.00245982 -1.48598e-08 0.50139 -0.00245982 1.48598e-08 0.401667 -0.00245983 1.48598e-08 0.301945 -0.00245985 1.48598e-08 0.202223 -0.00245982 7.42988e-09 0.102501 -0.00245982 7.72011e-09 0.00277904 -0.00245983 7.42988e-09 -0.0969153 -0.00236943 0 -0.196259 -0.00133901 1.48598e-08 -0.295294 1.89016e-05 1.48598e-08 -0.394253 0.000825132 1.48598e-08 -0.493159 0.000933742 4.45793e-08 -0.592118 0.000199477 4.45793e-08 -0.691529 -0.00139558 1.04018e-07 -0.791216 -0.003211 1.04018e-07 -0.890903 -0.0050264 1.04018e-07 -0.99059 -0.00684181 -1.48598e-08 0.900278 -0.102182 -1.48598e-08 1 -0.102182 -1.48598e-08 0.800556 -0.102182 -1.48598e-08 0.700834 -0.102182 -1.48598e-08 0.601112 -0.102182 -1.48598e-08 0.50139 -0.102182 1.48598e-08 0.401667 -0.102182 1.48598e-08 0.301945 -0.102182 1.48598e-08 0.202223 -0.102182 7.42988e-09 0.102501 -0.102182 7.72011e-09 0.00277903 -0.102182 7.42988e-09 -0.0969431 -0.102182 1.48598e-08 -0.196461 -0.101808 1.48598e-08 -0.295258 -0.100481 1.48598e-08 -0.393569 -0.099188 4.45793e-08 -0.491799 -0.0987472 1.04018e-07 -0.590378 -0.0994556 1.04018e-07 -0.689647 -0.101039 1.04018e-07 -0.789334 -0.102855 1.63457e-07 -0.889021 -0.10467 1.63457e-07 -0.988708 -0.106486 -1.48598e-08 0.900278 -0.201904 -1.48598e-08 1 -0.201904 -1.48598e-08 0.800556 -0.201904 -1.48598e-08 0.700834 -0.201904 -1.48598e-08 0.601112 -0.201904 -1.48598e-08 0.50139 -0.201904 1.48598e-08 0.401667 -0.201904 1.48598e-08 0.301945 -0.201904 1.48598e-08 0.202223 -0.201904 7.42988e-09 0.102501 -0.201904 7.72011e-09 0.00277901 -0.201904 7.42988e-09 -0.0969431 -0.201904 1.48598e-08 -0.196464 -0.201627 1.48598e-08 -0.295077 -0.200424 4.45793e-08 -0.393042 -0.199188 7.42988e-08 -0.490886 -0.198723 1.04018e-07 -0.589167 -0.199338 1.04018e-07 -0.688329 -0.200794 1.63457e-07 -0.788021 -0.202477 1.63457e-07 -0.887712 -0.204161 1.63457e-07 -0.987404 -0.205844 -1.48598e-08 0.900278 -0.301626 -1.48598e-08 1 -0.301626 -1.48598e-08 0.800556 -0.301626 -1.48598e-08 0.700834 -0.301626 -1.48598e-08 0.601112 -0.301626 -1.48598e-08 0.50139 -0.301626 1.48598e-08 0.401667 -0.301626 1.48598e-08 0.301945 -0.301626 1.48598e-08 0.202223 -0.301626 7.42988e-09 0.102501 -0.301626 7.72011e-09 0.00277898 -0.301626 7.42988e-09 -0.0969431 -0.301626 1.48598e-08 -0.196596 -0.30155 1.48598e-08 -0.295368 -0.300706 4.45793e-08 -0.393352 -0.299674 7.42988e-08 -0.491133 -0.299208 1.04018e-07 -0.589346 -0.299628 1.04018e-07 -0.688487 -0.300758 1.63457e-07 -0.788191 -0.302082 1.63457e-07 -0.887894 -0.303407 1.63457e-07 -0.987598 -0.304731 -1.48598e-08 0.900278 -0.401348 -1.48598e-08 1 -0.401348 -1.48598e-08 0.800556 -0.401348 -1.48598e-08 0.700834 -0.401348 -1.48598e-08 0.601112 -0.401348 -1.48598e-08 0.50139 -0.401348 1.48598e-08 0.401667 -0.401348 1.48598e-08 0.301945 -0.401348 1.48598e-08 0.202223 -0.401348 7.42988e-09 0.102501 -0.401348 7.72011e-09 0.00277903 -0.401348 7.42988e-09 -0.0969431 -0.401348 1.48598e-08 -0.196665 -0.401348 1.48598e-08 -0.295979 -0.401042 1.48598e-08 -0.394412 -0.400351 4.45793e-08 -0.492517 -0.399937 1.04018e-07 -0.59093 -0.400127 1.04018e-07 -0.690148 -0.400829 1.04018e-07 -0.789862 -0.40167 1.04018e-07 -0.889577 -0.402511 1.04018e-07 -0.989292 -0.403353 -1.48598e-08 0.900278 -0.50107 -1.48598e-08 1 -0.50107 -1.48598e-08 0.800556 -0.50107 -1.48598e-08 0.700834 -0.50107 -1.48598e-08 0.601112 -0.50107 -1.48598e-08 0.50139 -0.50107 1.48598e-08 0.401667 -0.50107 1.48598e-08 0.301945 -0.50107 1.48598e-08 0.202223 -0.50107 7.42988e-09 0.102501 -0.50107 7.72011e-09 0.00277903 -0.50107 7.42988e-09 -0.0969431 -0.50107 1.48598e-08 -0.196665 -0.50107 1.48598e-08 -0.296387 -0.50107 1.48598e-08 -0.395633 -0.500832 1.48598e-08 -0.494403 -0.500555 4.45793e-08 -0.593253 -0.500563 4.45793e-08 -0.692627 -0.50086 4.45793e-08 -0.792348 -0.501235 4.45793e-08 -0.892068 -0.501611 4.45793e-08 -0.991789 -0.501987 4.45793e-08 -0.892068 -0.501611 </float_array>
          <technique_common>
            <accessor count="232" offset="0" source="#meshId0-positions-array" stride="3">
              <param name="X" type="float" />
              <param name="Y" type="float" />
              <param name="Z" type="float" />
            </accessor>
          </technique_common>
        </source>
        <source id="meshId0-normals" name="meshId0-normals">
          <float_array id="meshId0-normals-array" count="696"> 1 0 0 1 0 0 1 0 0 1 0 0 1 0 0 1 0 0 1 0 0 1 0 0 1 0 0 1 0 0 1 1.49157e-07 0 1 1.49157e-07 0 1 1.49157e-07 0 1 1.49157e-07 0 1 0 0 1 0 0 1 -3.74712e-08 0 1 -3.74712e-08 0 1 -7.34041e-08 8.29292e-09 1 -6.35753e-08 9.73986e-09 1 -2.04331e-07 3.48619e-08 1 -1.65913e-07 5.64794e-08 1 -3.68068e-07 1.18865e-07 1 -3.03373e-07 1.56342e-07 1 -4.19897e-07 2.37759e-07 1 -3.46137e-07 2.92273e-07 1 -2.91135e-07 3.67722e-07 1 -2.56781e-07 4.02226e-07 1 -2.07496e-09 4.4568e-07 1 -3.96244e-08 4.07086e-07 1 1.41986e-07 4.4915e-07 1 1.06981e-07 3.36877e-07 1 6.54039e-08 5.22861e-07 1 1.42746e-07 3.75442e-07 1 1.40603e-07 4.49984e-07 1 1.40654e-07 4.5011e-07 1 2.92727e-07 3.03784e-07 1 2.16665e-07 3.76884e-07 1 1.40836e-07 4.5011e-07 1 2.16847e-07 3.76884e-07 1 -1.16508e-08 5.9631e-07 1 1.40472e-07 4.5011e-07 1 0 0 1 0 0 1 0 0 1 0 0 1 0 0 1 1.49157e-07 0 1 1.49157e-07 0 1 0 0 1 -3.74712e-08 0 1 -4.63499e-08 7.26843e-09 1 -9.22973e-08 5.13449e-08 1 -1.93186e-07 1.35704e-07 1 -2.37982e-07 2.19161e-07 1 -2.02425e-07 2.75805e-07 1 -7.50786e-08 2.96961e-07 1 7.07612e-08 2.99274e-07 1 2.18471e-07 3.02085e-07 1 2.17029e-07 3.76884e-07 1 1.40836e-07 4.5011e-07 1 2.16665e-07 3.76884e-07 1 2.92362e-07 3.03784e-07 1 0 0 1 0 0 1 0 0 1 0 0 1 0 0 1 1.49157e-07 0 1 1.49157e-07 0 1 0 0 1 -3.74712e-08 0 1 -3.74656e-08 1.67327e-09 1 -3.7175e-08 2.19066e-08 1 -1.10849e-07 7.55932e-08 1 -1.84588e-07 1.29178e-07 1 -1.46435e-07 1.84047e-07 1 -3.73797e-08 2.59237e-07 1 7.13831e-08 2.98967e-07 1 2.1842e-07 3.02159e-07 1 2.92883e-07 3.03658e-07 1 1.43816e-07 3.00905e-07 1 1.43449e-07 3.01033e-07 1 2.92362e-07 3.03784e-07 1 0 0 1 0 0 1 0 0 1 0 0 1 0 0 1 1.49157e-07 0 1 1.49157e-07 0 1 0 0 1 -3.72893e-08 0 1 -3.6016e-08 4.33681e-17 1 -9.07228e-09 9.28641e-09 1 -5.6638e-08 3.68752e-08 1 -1.0025e-07 1.20214e-07 1 -5.40422e-08 2.40573e-07 1 9.14236e-10 2.96242e-07 1 7.25948e-08 2.97887e-07 1 2.19772e-07 3.01214e-07 1 2.93032e-07 3.03607e-07 1 1.43631e-07 3.01034e-07 1 1.43452e-07 3.00905e-07 1 2.92362e-07 3.03784e-07 1 0 0 1 0 0 1 0 0 1 0 0 1 0 0 1 1.49157e-07 0 1 1.49157e-07 0 1 0 0 1 -3.72893e-08 2.77556e-15 1 -3.61979e-08 2.84061e-15 1 -2.0966e-13 1.82974e-13 1 -1.95047e-08 1.86687e-08 1 9.09694e-10 7.36828e-08 1 2.00238e-08 1.29249e-07 1 3.83073e-08 1.86328e-07 1 1.85387e-07 3.376e-07 1 2.18408e-07 4.50536e-07 1 2.17616e-07 3.76579e-07 1 2.17029e-07 3.76884e-07 1 1.40836e-07 4.5011e-07 1 1.40603e-07 4.49984e-07 1 0 0 1 0 0 1 0 0 1 0 0 1 0 0 1 1.48975e-07 0 1 1.49157e-07 0 1 -6.90225e-17 0 1 -3.74712e-08 4.2128e-22 1 -3.6016e-08 -8.67372e-17 1 -1.81885e-10 1.0156e-13 1 1.73244e-08 1.85306e-08 1 3.75606e-08 3.70062e-08 1 5.76829e-08 5.61631e-08 1 1.51664e-07 1.4917e-07 1 3.38366e-07 2.63748e-07 1 2.22269e-07 3.01491e-07 1 1.43953e-07 3.00504e-07 1 2.92771e-07 3.02983e-07 1 1.44017e-07 3.01e-07 1 -5.45991e-09 2.98078e-07 1 0 0 1 0 0 1 0 0 1 0 0 1 0 0 1 1.48975e-07 0 1 1.49157e-07 0 1 2.7609e-17 0 1 -3.72893e-08 -2.77556e-15 1 -3.56522e-08 -2.81892e-15 1 1.65654e-16 1.51788e-16 1 3.58514e-08 -1.25781e-11 1 3.76479e-08 -1.25937e-11 1 1.14022e-07 3.65919e-08 1 2.65766e-07 1.11499e-07 1 3.40648e-07 1.13237e-07 1 1.8878e-07 3.81785e-08 1 2.21016e-07 7.55062e-08 1 2.97178e-07 1.50867e-07 1 7.28597e-08 7.55626e-08 1 -3.68236e-10 0 1 0 0 1 0 0 1 0 0 1 0 0 1 0 0 1 1.49157e-07 0 1 1.49157e-07 0 1 0 0 1 -3.72893e-08 0 1 -3.58341e-08 4.33681e-17 1 -7.17833e-16 -4.33682e-17 1 3.60188e-08 -1.87837e-11 1 3.75577e-08 -1.88283e-11 1 1.12585e-07 -3.75923e-08 1 2.64636e-07 -1.12321e-07 1 3.40374e-07 -1.13781e-07 1 1.89781e-07 -3.91886e-08 1 2.2447e-07 -7.45586e-08 1 2.2644e-07 -2.23918e-07 1 3.10844e-09 -2.99711e-07 1 2.98664e-09 -3.04705e-07 1 0 0 1 0 0 1 0 0 1 0 0 1 0 0 1 1.49157e-07 0 1 1.49157e-07 0 1 0 0 1 -3.72893e-08 0 1 -3.6016e-08 4.33681e-17 1 2.7609e-16 -1.51788e-16 1 3.60157e-08 -6.49494e-12 1 3.71348e-08 -6.49813e-12 1 3.70404e-08 -3.71144e-08 1 1.50439e-07 -1.49352e-07 1 3.39476e-07 -2.62908e-07 1 2.27408e-07 -2.98742e-07 1 7.82827e-08 -3.73991e-07 1 7.77132e-08 -5.24815e-07 1 5.11849e-09 -5.99873e-07 1 5.48493e-09 -6.01315e-07 1 0 0 1 0 0 1 0 0 1 0 0 1 0 0 1 1.49157e-07 0 1 1.49157e-07 0 1 0 0 1 -3.71074e-08 0 1 -3.6016e-08 8.67362e-17 1 -2.20872e-16 -4.33681e-17 1 3.6016e-08 -1.30104e-16 1 3.71168e-08 0 1 0 0 1 7.57073e-08 -7.54694e-08 1 3.03313e-07 -3.03317e-07 1 2.23743e-07 -5.24229e-07 1 3.27862e-09 -5.94403e-07 1 3.27346e-09 -5.97101e-07 1 3.67519e-09 -5.99908e-07 1 4.40421e-09 -6.01295e-07 1 3.67519e-09 -5.99908e-07 </float_array>
          <technique_common>
            <accessor count="232" offset="0" source="#meshId0-normals-array" stride="3">
              <param name="X" type="float" />
              <param name="Y" type="float" />
              <param name="Z" type="float" />
            </accessor>
          </technique_common>
        </source>
        <source id="meshId0-tangents" name="meshId0-tangents">
          <float_array id="meshId0-tangents-array" count="696"> 0 0 -1 0 0 -1 0 0 -1 0 0 -1 0 0 -1 0 0 -1 0 0 -1 0 0 -1 0 0 -1 0 0 -1 0 0 -1 0 0 -1 0 0 -1 0 0 -1 0 0 -1 0 4.47035e-07 -1 0 0 -1 5.58363e-15 1.49011e-07 -1 8.29292e-09 -6.08735e-16 -1 9.74809e-09 0.000129415 -1 3.50215e-08 0.000781054 -1 5.66964e-08 0.00130793 -0.999999 1.2029e-07 0.00387591 -0.999993 1.57824e-07 0.0048925 -0.999988 2.41502e-07 0.00893761 -0.99996 2.95775e-07 0.0101586 -0.999948 3.71925e-07 0.0145694 -0.999894 4.06189e-07 0.0156252 -0.999878 4.45638e-07 0.0191688 -0.999816 4.07774e-07 0.0192749 -0.999814 4.46009e-07 0.0213938 -0.999771 3.34737e-07 0.0194178 -0.999811 5.21478e-07 0.0196084 -0.999808 3.72706e-07 0.0187072 -0.999825 4.47248e-07 0.0188841 -0.999822 4.47373e-07 0.0188844 -0.999822 2.98202e-07 0.0188844 -0.999822 3.72725e-07 0.0188844 -0.999822 4.4737e-07 0.0188846 -0.999822 3.72722e-07 0.0188844 -0.999822 5.96423e-07 0.0188847 -0.999822 4.47377e-07 0.0188845 -0.999822 0 1.49012e-07 -1 0 5.96046e-07 -1 0 4.47035e-07 -1 0 5.96046e-07 -1 0 1.49012e-07 -1 -6.66784e-14 4.47034e-07 -1 -4.44523e-14 2.98023e-07 -1 0 4.47035e-07 -1 -1.67509e-14 -4.47035e-07 -1 7.27346e-09 0.000108631 -1 5.1432e-08 0.000943638 -1 1.36425e-07 0.00373604 -0.999993 2.21069e-07 0.00804813 -0.999968 2.78307e-07 0.0124663 -0.999922 2.9809e-07 0.0155102 -0.99988 2.98016e-07 0.0171656 -0.999853 2.97945e-07 0.0187074 -0.999825 3.72718e-07 0.0188846 -0.999822 4.4737e-07 0.0188844 -0.999822 3.72725e-07 0.0188844 -0.999822 2.98209e-07 0.0188845 -0.999822 0 -4.16158e-13 -1 0 -2.98024e-07 -1 0 1.49011e-07 -1 0 -1.49012e-07 -1 0 -3.70923e-13 -1 1.46673e-19 -9.77066e-13 -1 2.22262e-14 -1.49012e-07 -1 0 -1.49012e-07 -1 -1.83341e-20 -5.24721e-13 -1 1.67393e-09 1.75383e-05 -1 2.19181e-08 0.000309191 -1 7.57762e-08 0.00165239 -0.999999 1.30023e-07 0.00458446 -0.99999 1.853e-07 0.00860044 -0.999963 2.59701e-07 0.0129808 -0.999916 2.97745e-07 0.0165477 -0.999863 2.98172e-07 0.0180285 -0.999837 2.98124e-07 0.0187116 -0.999825 2.98135e-07 0.0188845 -0.999822 2.98271e-07 0.0188844 -0.999822 2.98209e-07 0.0188842 -0.999822 0 -1.49012e-07 -1 0 -2.98024e-07 -1 0 -5.96047e-07 -1 0 -4.47035e-07 -1 0 -1.49012e-07 -1 6.66785e-14 -4.47035e-07 -1 0 0 -1 0 1.49012e-07 -1 1.59731e-14 4.28356e-07 -1 -4.32183e-15 -1.21202e-07 -1 9.28698e-09 6.31616e-05 -1 3.69044e-08 0.000515227 -1 1.20464e-07 0.00249041 -0.999997 2.40887e-07 0.005889 -0.999983 2.9622e-07 0.0096491 -0.999953 2.96894e-07 0.0133121 -0.999911 2.97462e-07 0.0168777 -0.999858 2.98072e-07 0.0187068 -0.999825 2.98267e-07 0.0188846 -0.999822 2.98142e-07 0.0188847 -0.999822 2.98209e-07 0.0188846 -0.999822 0 0 -1 0 0 -1 0 0 -1 0 0 -1 0 0 -1 0 0 -1 0 0 -1 0 0 -1 -1.40346e-15 -1.1207e-07 -1 7.22785e-15 1.21202e-07 -1 1.82968e-13 -2.76325e-05 -1 1.86671e-08 -8.47609e-05 -1 7.36828e-08 -4.8053e-05 -1 1.29209e-07 0.00200804 -0.999998 1.86075e-07 0.00648908 -0.999979 3.35281e-07 0.0123732 -0.999923 4.46721e-07 0.0171618 -0.999853 3.72442e-07 0.0187066 -0.999825 3.72718e-07 0.0188846 -0.999822 4.4737e-07 0.0188844 -0.999822 4.47248e-07 0.0188843 -0.999822 0 -1.49012e-07 -1 0 -5.96047e-07 -1 0 -4.47035e-07 -1 0 2.98023e-07 -1 0 1.49012e-07 -1 -6.65971e-14 4.47035e-07 -1 -2.22261e-14 1.49012e-07 -1 -2.57845e-24 -3.73567e-08 -1 -1.39513e-14 -3.72322e-07 -1 -4.1081e-15 -1.11655e-07 -1 9.5142e-14 -3.52866e-05 -1 1.85368e-08 -0.000357088 -1 3.70331e-08 -0.000717047 -1 5.6067e-08 0.00166423 -0.999999 1.48186e-07 0.00646979 -0.999979 2.59878e-07 0.011389 -0.999935 2.98213e-07 0.0146016 -0.999893 2.98175e-07 0.0159147 -0.999873 2.98248e-07 0.0160368 -0.999871 2.98655e-07 0.0160205 -0.999872 2.98127e-07 0.0160044 -0.999872 0 1.49011e-07 -1 0 8.94068e-07 -1 0 5.96044e-07 -1 0 7.45057e-07 -1 0 1.49011e-07 -1 -6.65971e-14 4.47035e-07 -1 0 0 -1 2.56699e-24 -9.29767e-08 -1 -1.80522e-14 -4.09678e-07 -1 -3.47745e-15 -1.84708e-08 -1 1.51788e-16 -2.97563e-07 -1 -1.24477e-11 -3.63887e-06 -1 -2.07734e-12 -0.000279336 -1 3.6582e-08 8.72478e-05 -1 1.11071e-07 0.00161297 -0.999999 1.11992e-07 0.00365479 -0.999993 3.71892e-08 0.0052377 -0.999986 7.42252e-08 0.0057901 -0.999983 1.49156e-07 0.0057484 -0.999983 7.51482e-08 0.00567098 -0.999984 2.04647e-12 0.00555748 -0.999985 0 -7.96128e-13 -1 0 -5.96049e-07 -1 0 8.94068e-07 -1 0 0 -1 0 0 -1 0 0 -1 0 0 -1 0 -3.73567e-08 -1 1.66696e-14 4.47034e-07 -1 4.72419e-15 1.30625e-07 -1 -4.33681e-17 1.6769e-07 -1 -1.28495e-11 -0.000164754 -1 2.31811e-11 -0.00111853 -0.999999 -3.7159e-08 -0.00384574 -0.999993 -1.1069e-07 -0.00615614 -0.999981 -1.11195e-07 -0.00758875 -0.999971 -3.75788e-08 -0.00847484 -0.999964 -7.25372e-08 -0.00899197 -0.99996 -2.21817e-07 -0.00923478 -0.999957 -2.99668e-07 -0.00939483 -0.999956 -3.04662e-07 -0.00962514 -0.999954 0 1.49011e-07 -1 0 -1.48369e-12 -1 0 -4.47035e-07 -1 0 -5.96047e-07 -1 0 -1.49012e-07 -1 0 0 -1 0 0 -1 0 1.6769e-07 -1 1.87591e-14 5.03069e-07 -1 1.37082e-15 3.68573e-08 -1 -1.51788e-16 4.83932e-07 -1 -3.36561e-12 -8.68881e-05 -1 3.16729e-11 -0.0010279 -0.999999 -3.69236e-08 -0.00513735 -0.999987 -1.47729e-07 -0.0107328 -0.999942 -2.57562e-07 -0.0156531 -0.999877 -2.94372e-07 -0.0189772 -0.99982 -3.72308e-07 -0.0204925 -0.99979 -5.23079e-07 -0.0208707 -0.999782 -5.99632e-07 -0.0210563 -0.999778 -6.01063e-07 -0.0212723 -0.999774 0 -2.98023e-07 -1 0 5.96046e-07 -1 0 -1.19209e-06 -1 0 -8.94071e-07 -1 0 0 -1 0 0 -1 0 0 -1 0 3.73567e-08 -1 5.54484e-15 1.49427e-07 -1 4.12306e-15 1.1207e-07 -1 -4.33681e-17 3.73567e-08 -1 -4.16642e-15 1.1207e-07 -1 3.80425e-11 -0.00102494 -0.999999 0 -0.00613034 -0.999981 -7.44145e-08 -0.0138381 -0.999904 -2.97234e-07 -0.0198569 -0.999803 -5.18816e-07 -0.0235417 -0.999723 -5.94138e-07 -0.0248248 -0.999692 -5.96833e-07 -0.0250001 -0.999688 -5.99626e-07 -0.0251319 -0.999684 -6.0099e-07 -0.025312 -0.99968 -5.99624e-07 -0.0252214 -0.999682 </float_array>
          <technique_common>
            <accessor count="232" offset="0" source="#meshId0-tangents-array" stride="3">
              <param name="X" type="float" />
              <param name="Y" type="float" />
              <param name="Z" type="float" />
            </accessor>
          </technique_common>
        </source>
        <source id="meshId0-bitangents" name="meshId0-bitangents">
          <float_array id="meshId0-bitangents-array" count="696"> -0 1 0 -0 1 0 -0 1 0 -0 1 0 -0 1 0 -0 1 0 -0 1 0 -0 1 0 -0 1 0 -0 1 0 -1.49157e-07 1 0 -1.49157e-07 1 0 -1.49157e-07 1 0 -1.49157e-07 1 0 -0 1 0 -0 1 4.47035e-07 3.74712e-08 1 0 3.74712e-08 1 1.49011e-07 7.34041e-08 1 0 6.3574e-08 1 0.000129415 2.04304e-07 1 0.000781054 1.65839e-07 0.999999 0.00130793 3.67605e-07 0.999993 0.00387591 3.02605e-07 0.999988 0.0048925 4.17755e-07 0.99996 0.00893761 3.4315e-07 0.999948 0.0101586 2.85747e-07 0.999894 0.0145694 2.50465e-07 0.999878 0.0156252 -6.46857e-09 0.999816 0.0191688 3.17705e-08 0.999814 0.0192749 -1.51563e-07 0.999771 0.0213938 -1.13503e-07 0.999811 0.0194178 -7.56438e-08 0.999808 0.0196084 -1.49744e-07 0.999825 0.0187072 -1.49075e-07 0.999822 0.0188841 -1.49129e-07 0.999822 0.0188844 -2.98411e-07 0.999822 0.0188844 -2.23743e-07 0.999822 0.0188844 -1.49311e-07 0.999822 0.0188846 -2.23926e-07 0.999822 0.0188844 3.87607e-10 0.999822 0.0188847 -1.48947e-07 0.999822 0.0188845 -0 1 1.49012e-07 -0 1 5.96046e-07 -0 1 4.47035e-07 -0 1 5.96046e-07 -0 1 1.49012e-07 -1.49157e-07 1 4.47034e-07 -1.49157e-07 1 2.98023e-07 -0 1 4.47035e-07 3.74712e-08 1 -4.47035e-07 4.63491e-08 1 0.000108631 9.22488e-08 1 0.000943638 1.92677e-07 0.999993 0.00373604 2.36211e-07 0.999968 0.00804813 1.98971e-07 0.999922 0.0124663 7.04636e-08 0.99988 0.0155102 -7.5888e-08 0.999853 0.0171656 -2.24084e-07 0.999825 0.0187074 -2.24108e-07 0.999822 0.0188846 -1.49311e-07 0.999822 0.0188844 -2.23743e-07 0.999822 0.0188844 -2.98047e-07 0.999822 0.0188845 0 1 -4.16158e-13 0 1 -2.98024e-07 -0 1 1.49011e-07 0 1 -1.49012e-07 0 1 -3.70923e-13 -1.49157e-07 1 -9.77066e-13 -1.49157e-07 1 -1.49012e-07 0 1 -1.49012e-07 3.74712e-08 1 -5.24721e-13 3.74656e-08 1 1.75383e-05 3.71682e-08 1 0.000309191 1.10724e-07 0.999999 0.00165239 1.83994e-07 0.99999 0.00458446 1.44847e-07 0.999963 0.00860044 3.40115e-08 0.999916 0.0129808 -7.63205e-08 0.999863 0.0165477 -2.23832e-07 0.999837 0.0180285 -2.98513e-07 0.999825 0.0187116 -1.49473e-07 0.999822 0.0188845 -1.49109e-07 0.999822 0.0188844 -2.98047e-07 0.999822 0.0188842 0 1 -1.49012e-07 0 1 -2.98024e-07 0 1 -5.96047e-07 0 1 -4.47035e-07 0 1 -1.49012e-07 -1.49157e-07 1 -4.47035e-07 -1.49157e-07 1 0 -0 1 1.49012e-07 3.72893e-08 1 4.28356e-07 3.6016e-08 1 -1.21202e-07 9.0717e-09 1 6.31616e-05 5.6619e-08 1 0.000515227 9.99501e-08 0.999997 0.00249041 5.26246e-08 0.999983 0.005889 -3.77267e-09 0.999953 0.0096491 -7.65538e-08 0.999911 0.0133121 -2.24824e-07 0.999858 0.0168777 -2.98661e-07 0.999825 0.0187068 -1.49291e-07 0.999822 0.0188846 -1.49108e-07 0.999822 0.0188847 -2.98047e-07 0.999822 0.0188846 -0 1 0 -0 1 0 -0 1 0 -0 1 0 -0 1 0 -1.49157e-07 1 0 -1.49157e-07 1 0 -0 1 0 3.72893e-08 1 -1.1207e-07 3.61979e-08 1 1.21202e-07 2.09665e-13 1 -2.76325e-05 1.95063e-08 1 -8.47609e-05 -9.06153e-10 1 -4.8053e-05 -2.02833e-08 0.999998 0.00200804 -3.95156e-08 0.999979 0.00648908 -1.8955e-07 0.999923 0.0123732 -2.26108e-07 0.999853 0.0171618 -2.24622e-07 0.999825 0.0187066 -2.24108e-07 0.999822 0.0188846 -1.49311e-07 0.999822 0.0188844 -1.49075e-07 0.999822 0.0188843 0 1 -1.49012e-07 0 1 -5.96047e-07 0 1 -4.47035e-07 -0 1 2.98023e-07 -0 1 1.49012e-07 -1.48975e-07 1 4.47035e-07 -1.49157e-07 1 1.49012e-07 6.90225e-17 1 -3.73567e-08 3.74712e-08 1 -3.72322e-07 3.6016e-08 1 -1.11655e-07 1.81885e-10 1 -3.52866e-05 -1.73177e-08 1 -0.000357088 -3.7534e-08 1 -0.000717047 -5.77763e-08 0.999999 0.00166423 -1.52626e-07 0.999979 0.00646979 -3.41347e-07 0.999935 0.011389 -2.26648e-07 0.999893 0.0146016 -1.48717e-07 0.999873 0.0159147 -2.97592e-07 0.999871 0.0160368 -1.48821e-07 0.999872 0.0160205 6.88652e-10 0.999872 0.0160044 -0 1 1.49011e-07 -0 1 8.94068e-07 -0 1 5.96044e-07 -0 1 7.45057e-07 -0 1 1.49011e-07 -1.48975e-07 1 4.47035e-07 -1.49157e-07 1 0 -2.7609e-17 1 -9.29767e-08 3.72893e-08 1 -4.09678e-07 3.56522e-08 1 -1.84708e-08 -1.65654e-16 1 -2.97563e-07 -3.58514e-08 1 -3.63887e-06 -3.76479e-08 1 -0.000279336 -1.14025e-07 1 8.72478e-05 -2.65946e-07 0.999999 0.00161297 -3.4106e-07 0.999993 0.00365479 -1.88978e-07 0.999986 0.0052377 -2.21449e-07 0.999983 0.0057901 -2.9804e-07 0.999983 0.0057484 -7.3287e-08 0.999984 0.00567098 3.68231e-10 0.999985 0.00555748 0 1 -7.96128e-13 0 1 -5.96049e-07 -0 1 8.94068e-07 -0 1 0 -0 1 0 -1.49157e-07 1 0 -1.49157e-07 1 0 0 1 -3.73567e-08 3.72893e-08 1 4.47034e-07 3.58341e-08 1 1.30625e-07 7.17833e-16 1 1.6769e-07 -3.60188e-08 1 -0.000164754 -3.75577e-08 0.999999 -0.00111853 -1.12729e-07 0.999993 -0.00384574 -2.65323e-07 0.999981 -0.00615614 -3.41227e-07 0.999971 -0.00758875 -1.90106e-07 0.999964 -0.00847484 -2.25131e-07 0.99996 -0.00899197 -2.28498e-07 0.999957 -0.00923478 -5.92403e-09 0.999956 -0.00939483 -5.91933e-09 0.999954 -0.00962514 -0 1 1.49011e-07 0 1 -1.48369e-12 0 1 -4.47035e-07 0 1 -5.96047e-07 0 1 -1.49012e-07 -1.49157e-07 1 0 -1.49157e-07 1 0 -0 1 1.6769e-07 3.72893e-08 1 5.03069e-07 3.6016e-08 1 3.68573e-08 -2.7609e-16 1 4.83932e-07 -3.60157e-08 1 -8.68881e-05 -3.71348e-08 0.999999 -0.0010279 -3.72306e-08 0.999987 -0.00513735 -1.52034e-07 0.999942 -0.0107328 -3.4355e-07 0.999877 -0.0156531 -2.33037e-07 0.99982 -0.0189772 -8.59302e-08 0.99979 -0.0204925 -8.86496e-08 0.999782 -0.0208707 -1.77485e-08 0.999778 -0.0210563 -1.82751e-08 0.999774 -0.0212723 0 1 -2.98023e-07 -0 1 5.96046e-07 0 1 -1.19209e-06 0 1 -8.94071e-07 -0 1 0 -1.49157e-07 1 0 -1.49157e-07 1 0 -0 1 3.73567e-08 3.71074e-08 1 1.49427e-07 3.6016e-08 1 1.1207e-07 2.20872e-16 1 3.73567e-08 -3.6016e-08 1 1.1207e-07 -3.71168e-08 0.999999 -0.00102494 0 0.999981 -0.00613034 -7.67444e-08 0.999904 -0.0138381 -3.09276e-07 0.999803 -0.0198569 -2.36022e-07 0.999723 -0.0235417 -1.80335e-08 0.999692 -0.0248248 -1.82e-08 0.999688 -0.0250001 -1.87509e-08 0.999684 -0.0251319 -1.96228e-08 0.99968 -0.025312 -1.88045e-08 0.999682 -0.0252214 </float_array>
          <technique_common>
            <accessor count="232" offset="0" source="#meshId0-bitangents-array" stride="3">
              <param name="X" type="float" />
              <param name="Y" type="float" />
              <param name="Z" type="float" />
            </accessor>
          </technique_common>
        </source>
        <source id="meshId0-tex0" name="meshId0-tex0">
          <float_array id="meshId0-tex0-array" count="464"> 5.96046e-08 1 7.82311e-08 0.95 0.0500001 0.95 0.0500001 1 8.19564e-08 0.9 0.0500001 0.9 7.45058e-08 0.85 0.0500001 0.85 7.45058e-08 0.8 0.0500001 0.8 5.96046e-08 0.75 0.0500001 0.75 5.96046e-08 0.7 0.0500001 0.7 5.96046e-08 0.65 0.0500001 0.65 5.96046e-08 0.6 0.0500001 0.6 5.96046e-08 0.55 0.0500001 0.55 5.96046e-08 0.5 0.0500001 0.5 5.96046e-08 0.45 0.0500001 0.45 5.96046e-08 0.4 0.0500001 0.4 5.96046e-08 0.35 0.0500001 0.35 5.96046e-08 0.3 0.05 0.3 5.96046e-08 0.25 0.05 0.25 5.96046e-08 0.2 0.0500001 0.2 5.96046e-08 0.15 0.05 0.15 0 0.1 0.0500001 0.1 0 0.05 0.0500001 0.05 5.96046e-08 1.49012e-08 0.05 1.49012e-08 0.1 0.95 0.1 1 0.1 0.9 0.1 0.85 0.1 0.8 0.1 0.75 0.1 0.7 0.1 0.65 0.1 0.6 0.1 0.55 0.1 0.5 0.1 0.45 0.1 0.4 0.1 0.35 0.1 0.3 0.1 0.25 0.1 0.2 0.1 0.15 0.1 0.1 0.1 0.05 0.1 1.49012e-08 0.15 0.95 0.15 1 0.15 0.9 0.15 0.85 0.15 0.8 0.15 0.75 0.15 0.7 0.15 0.65 0.15 0.6 0.15 0.55 0.15 0.5 0.15 0.45 0.15 0.4 0.15 0.35 0.15 0.3 0.15 0.25 0.15 0.2 0.15 0.15 0.15 0.1 0.15 0.05 0.15 1.49012e-08 0.2 0.95 0.2 1 0.2 0.9 0.2 0.85 0.2 0.8 0.2 0.75 0.2 0.7 0.2 0.65 0.2 0.6 0.2 0.55 0.2 0.5 0.2 0.45 0.2 0.4 0.2 0.35 0.2 0.3 0.2 0.25 0.2 0.2 0.2 0.15 0.2 0.1 0.2 0.05 0.2 2.98023e-08 0.25 0.95 0.25 1 0.25 0.9 0.25 0.85 0.25 0.8 0.25 0.75 0.25 0.7 0.25 0.65 0.25 0.6 0.25 0.55 0.25 0.5 0.25 0.45 0.25 0.4 0.25 0.35 0.25 0.3 0.25 0.25 0.25 0.2 0.25 0.15 0.25 0.1 0.25 0.05 0.25 2.98023e-08 0.3 0.95 0.3 1 0.3 0.9 0.3 0.85 0.3 0.8 0.3 0.75 0.3 0.7 0.3 0.65 0.3 0.6 0.3 0.55 0.3 0.5 0.3 0.45 0.3 0.4 0.3 0.35 0.3 0.3 0.3 0.25 0.3 0.2 0.3 0.15 0.3 0.1 0.3 0.05 0.3 2.98023e-08 0.35 0.95 0.35 1 0.35 0.9 0.35 0.85 0.35 0.8 0.35 0.75 0.35 0.7 0.35 0.65 0.35 0.6 0.35 0.55 0.35 0.5 0.35 0.45 0.35 0.4 0.35 0.35 0.35 0.3 0.35 0.25 0.35 0.2 0.35 0.15 0.35 0.1 0.35 0.0500001 0.35 0 0.4 0.95 0.4 1 0.4 0.9 0.4 0.85 0.4 0.8 0.4 0.75 0.4 0.7 0.4 0.65 0.4 0.6 0.4 0.55 0.4 0.5 0.4 0.45 0.4 0.4 0.4 0.35 0.4 0.3 0.4 0.25 0.4 0.2 0.4 0.15 0.4 0.1 0.4 0.05 0.4 5.96046e-08 0.45 0.95 0.45 1 0.45 0.9 0.45 0.85 0.45 0.8 0.45 0.75 0.45 0.7 0.45 0.65 0.45 0.6 0.45 0.55 0.45 0.5 0.45 0.45 0.45 0.4 0.45 0.35 0.45 0.3 0.45 0.25 0.45 0.2 0.45 0.15 0.45 0.1 0.45 0.0500001 0.45 0 0.5 0.95 0.5 1 0.5 0.9 0.5 0.85 0.5 0.8 0.5 0.75 0.5 0.7 0.5 0.65 0.5 0.6 0.5 0.55 0.5 0.5 0.5 0.45 0.5 0.4 0.5 0.35 0.5 0.3 0.5 0.25 0.5 0.2 0.5 0.15 0.5 0.1 0.5 0.05 0.5 2.98023e-08 0.5 0.05 </float_array>
          <technique_common>
            <accessor count="232" offset="0" source="#meshId0-tex0-array" stride="2">
              <param name="S" type="float" />
              <param name="T" type="float" />
            </accessor>
          </technique_common>
        </source>
        <vertices id="meshId0-vertices">
          <input semantic="POSITION" source="#meshId0-positions" />
        </vertices>
        <polylist count="400" material="defaultMaterial">
          <input offset="0" semantic="VERTEX" source="#meshId0-vertices" />
          <input offset="0" semantic="NORMAL" source="#meshId0-normals" />
          <input offset="0" semantic="TANGENT" source="#meshId0-tangents" />
          <input offset="0" semantic="BINORMAL" source="#meshId0-bitangents" />
          <input offset="0" semantic="TEXCOORD" source="#meshId0-tex0" set="0" />
          <vcount>3 3 3 3 3 3 3 3 3 3 3 3 3 3 3 3 3 3 3 3 3 3 3 3 3 3 3 3 3 3 3 3 3 3 3 3 3 3 3 3 3 3 3 3 3 3 3 3 3 3 3 3 3 3 3 3 3 3 3 3 3 3 3 3 3 3 3 3 3 3 3 3 3 3 3 3 3 3 3 3 3 3 3 3 3 3 3 3 3 3 3 3 3 3 3 3 3 3 3 3 3 3 3 3 3 3 3 3 3 3 3 3 3 3 3 3 3 3 3 3 3 3 3 3 3 3 3 3 3 3 3 3 3 3 3 3 3 3 3 3 3 3 3 3 3 3 3 3 3 3 3 3 3 3 3 3 3 3 3 3 3 3 3 3 3 3 3 3 3 3 3 3 3 3 3 3 3 3 3 3 3 3 3 3 3 3 3 3 3 3 3 3 3 3 3 3 3 3 3 3 3 3 3 3 3 3 3 3 3 3 3 3 3 3 3 3 3 3 3 3 3 3 3 3 3 3 3 3 3 3 3 3 3 3 3 3 3 3 3 3 3 3 3 3 3 3 3 3 3 3 3 3 3 3 3 3 3 3 3 3 3 3 3 3 3 3 3 3 3 3 3 3 3 3 3 3 3 3 3 3 3 3 3 3 3 3 3 3 3 3 3 3 3 3 3 3 3 3 3 3 3 3 3 3 3 3 3 3 3 3 3 3 3 3 3 3 3 3 3 3 3 3 3 3 3 3 3 3 3 3 3 3 3 3 3 3 3 3 3 3 3 3 3 3 3 3 3 3 3 3 3 3 3 3 3 3 3 3 3 3 3 3 3 3 3 3 3 3 3 3 3 3 3 3 3 3 3 3 3 3 3 3 3 3 3 3 3 3 3 3 3 3 3 3 3 3 3 3 3 3 </vcount>
          <p>3 0 1 1 2 3 2 1 4 4 5 2 5 4 6 6 7 5 7 6 8 8 9 7 9 8 10 10 11 9 11 10 12 12 13 11 13 12 14 14 15 13 15 14 16 16 17 15 17 16 18 18 19 17 19 18 20 20 21 19 21 20 22 22 23 21 23 22 24 24 25 23 25 24 26 26 27 25 27 26 28 28 29 27 29 28 30 30 31 29 31 30 32 32 33 31 33 32 34 34 35 33 35 34 36 36 37 35 37 36 38 38 39 37 39 38 40 40 41 39 43 3 2 2 42 43 42 2 5 5 44 42 44 5 7 7 45 44 45 7 9 9 46 45 46 9 11 11 47 46 47 11 13 13 48 47 48 13 15 15 49 48 49 15 17 17 50 49 50 17 19 19 51 50 51 19 21 21 52 51 52 21 23 23 53 52 53 23 25 25 54 53 54 25 27 27 55 54 55 27 29 29 56 55 56 29 31 31 57 56 57 31 33 33 58 57 58 33 35 35 59 58 59 35 37 37 60 59 60 37 39 39 61 60 61 39 41 41 62 61 64 43 42 42 63 64 63 42 44 44 65 63 65 44 45 45 66 65 66 45 46 46 67 66 67 46 47 47 68 67 68 47 48 48 69 68 69 48 49 49 70 69 70 49 50 50 71 70 71 50 51 51 72 71 72 51 52 52 73 72 73 52 53 53 74 73 74 53 54 54 75 74 75 54 55 55 76 75 76 55 56 56 77 76 77 56 57 57 78 77 78 57 58 58 79 78 79 58 59 59 80 79 80 59 60 60 81 80 81 60 61 61 82 81 82 61 62 62 83 82 85 64 63 63 84 85 84 63 65 65 86 84 86 65 66 66 87 86 87 66 67 67 88 87 88 67 68 68 89 88 89 68 69 69 90 89 90 69 70 70 91 90 91 70 71 71 92 91 92 71 72 72 93 92 93 72 73 73 94 93 94 73 74 74 95 94 95 74 75 75 96 95 96 75 76 76 97 96 97 76 77 77 98 97 98 77 78 78 99 98 99 78 79 79 100 99 100 79 80 80 101 100 101 80 81 81 102 101 102 81 82 82 103 102 103 82 83 83 104 103 106 85 84 84 105 106 105 84 86 86 107 105 107 86 87 87 108 107 108 87 88 88 109 108 109 88 89 89 110 109 110 89 90 90 111 110 111 90 91 91 112 111 112 91 92 92 113 112 113 92 93 93 114 113 114 93 94 94 115 114 115 94 95 95 116 115 116 95 96 96 117 116 117 96 97 97 118 117 118 97 98 98 119 118 119 98 99 99 120 119 120 99 100 100 121 120 121 100 101 101 122 121 122 101 102 102 123 122 123 102 103 103 124 123 124 103 104 104 125 124 127 106 105 105 126 127 126 105 107 107 128 126 128 107 108 108 129 128 129 108 109 109 130 129 130 109 110 110 131 130 131 110 111 111 132 131 132 111 112 112 133 132 133 112 113 113 134 133 134 113 114 114 135 134 135 114 115 115 136 135 136 115 116 116 137 136 137 116 117 117 138 137 138 117 118 118 139 138 139 118 119 119 140 139 140 119 120 120 141 140 141 120 121 121 142 141 142 121 122 122 143 142 143 122 123 123 144 143 144 123 124 124 145 144 145 124 125 125 146 145 148 127 126 126 147 148 147 126 128 128 149 147 149 128 129 129 150 149 150 129 130 130 151 150 151 130 131 131 152 151 152 131 132 132 153 152 153 132 133 133 154 153 154 133 134 134 155 154 155 134 135 135 156 155 156 135 136 136 157 156 157 136 137 137 158 157 158 137 138 138 159 158 159 138 139 139 160 159 160 139 140 140 161 160 161 140 141 141 162 161 162 141 142 142 163 162 163 142 143 143 164 163 164 143 144 144 165 164 165 144 145 145 166 165 166 145 146 146 167 166 169 148 147 147 168 169 168 147 149 149 170 168 170 149 150 150 171 170 171 150 151 151 172 171 172 151 152 152 173 172 173 152 153 153 174 173 174 153 154 154 175 174 175 154 155 155 176 175 176 155 156 156 177 176 177 156 157 157 178 177 178 157 158 158 179 178 179 158 159 159 180 179 180 159 160 160 181 180 181 160 161 161 182 181 182 161 162 162 183 182 183 162 163 163 184 183 184 163 164 164 185 184 185 164 165 165 186 185 186 165 166 166 187 186 187 166 167 167 188 187 190 169 168 168 189 190 189 168 170 170 191 189 191 170 171 171 192 191 192 171 172 172 193 192 193 172 173 173 194 193 194 173 174 174 195 194 195 174 175 175 196 195 196 175 176 176 197 196 197 176 177 177 198 197 198 177 178 178 199 198 199 178 179 179 200 199 200 179 180 180 201 200 201 180 181 181 202 201 202 181 182 182 203 202 203 182 183 183 204 203 204 183 184 184 205 204 205 184 185 185 206 205 206 185 186 186 207 206 207 186 187 187 208 207 208 187 188 188 209 208 211 190 189 189 210 211 210 189 191 191 212 210 212 191 192 192 213 212 213 192 193 193 214 213 214 193 194 194 215 214 215 194 195 195 216 215 216 195 196 196 217 216 217 196 197 197 218 217 218 197 198 198 219 218 219 198 199 199 220 219 220 199 200 200 221 220 221 200 201 201 222 221 222 201 202 202 223 222 223 202 203 203 224 223 224 203 204 204 225 224 225 204 205 205 226 225 226 205 206 206 227 226 227 206 207 207 228 227 228 207 208 208 229 228 231 208 209 209 230 231 </p>
        </polylist>
      </mesh>
    </geometry>
  </library_geometries>
  <library_visual_scenes>
    <visual_scene id="root" name="root">
      <node id="pPlane1" name="pPlane1">
        <matrix>1 0 0 0 0 1 0 0 0 0 1 0 0 0 0 1</matrix>
        <instance_geometry url="#meshId0">
          <bind_material>
            <technique_common>
              <instance_material symbol="defaultMaterial" target="#lambert1" />
            </technique_common>
          </bind_material>
        </instance_geometry>
      </node>
    </visual_scene>
  </library_visual_scenes>
  <scene>
    <instance_visual_scene url="#root" />
  </scene>
</COLLADA>
